<svg xmlns="http://www.w3.org/2000/svg" viewBox="0 0 300 29.27"><defs><style>.cls-1{fill:#be3a26;}.cls-2{fill:#e44c25;}.cls-3{fill:#641213;}</style></defs><g id="lettus"><polygon class="cls-1" points="173.23 21.95 226.81 21.95 204.37 7.32 195.67 7.32 173.23 21.95"/><path class="cls-1" d="M257.14,7.32,234.7,22h50.67a7.24,7.24,0,0,0,2.6-.49L266.28,7.32Z"/><polygon class="cls-1" points="44.31 21.95 96.58 21.95 74.14 7.32 66.75 7.32 44.31 21.95"/><path class="cls-1" d="M36.13,22,13.78,7.37A7.32,7.32,0,0,0,14.63,22Z"/><polygon class="cls-1" points="105.9 21.95 162.01 21.95 139.56 7.32 128.34 7.32 105.9 21.95"/><polygon class="cls-2" points="139.56 7.32 162.01 21.95 173.23 21.95 195.67 7.32 139.56 7.32"/><path class="cls-2" d="M266.28,7.32,288,21.46a7.31,7.31,0,0,0-2.6-14.14Z"/><path class="cls-2" d="M14.63,7.32a7.92,7.92,0,0,0-.85,0L36.13,22h8.18L66.75,7.32Z"/><polygon class="cls-2" points="74.14 7.32 96.58 21.95 105.9 21.95 128.34 7.32 74.14 7.32"/><polygon class="cls-2" points="204.37 7.32 226.81 21.95 234.7 21.95 257.14 7.32 204.37 7.32"/><path class="cls-3" d="M285.37,29.27H14.63A14.64,14.64,0,0,1,14.63,0H285.37a14.64,14.64,0,0,1,0,29.27ZM14.63,7.32a7.32,7.32,0,0,0,0,14.63H285.37a7.32,7.32,0,0,0,0-14.63Z"/></g></svg>