<svg id="Layer_1" data-name="Layer 1" xmlns="http://www.w3.org/2000/svg" viewBox="0 0 300 109.34"><defs><style>.cls-1{fill:#fddb00;}.cls-2{fill:#fdb714;}.cls-3{fill:#f6851f;}.cls-4{fill:#641213;}</style></defs><path class="cls-1" d="M287.34,71.49a180.46,180.46,0,0,0-274.68,0l-.26.3A17.87,17.87,0,0,0,26,101.25H274a17.87,17.87,0,0,0,13.6-29.46Z"/><circle class="cls-2" cx="96.99" cy="30.13" r="3.96"/><circle class="cls-2" cx="116.53" cy="26.75" r="3.38"/><circle class="cls-2" cx="57.05" cy="71.3" r="3.38"/><circle class="cls-2" cx="197.67" cy="67.53" r="6.68"/><circle class="cls-2" cx="66.58" cy="81.39" r="4.98"/><circle class="cls-2" cx="150" cy="82.59" r="4.98"/><path class="cls-3" d="M274,101.25a17.87,17.87,0,0,0,13.6-29.46l-.26-.3A180.37,180.37,0,0,0,122.79,10.16a183.4,183.4,0,0,1,125,64.15l.26.3a21.75,21.75,0,0,1,1.35,26.64Z"/><path class="cls-4" d="M274,109.34H26A26,26,0,0,1,6.24,66.55l.27-.31A188.27,188.27,0,0,1,150,0h0A188.25,188.25,0,0,1,293.49,66.24l.26.3A26,26,0,0,1,274,109.34ZM150,8.09A180.16,180.16,0,0,0,12.66,71.49l-.26.3A17.87,17.87,0,0,0,26,101.25H274a17.87,17.87,0,0,0,13.6-29.46l-.26-.3A180.16,180.16,0,0,0,150,8.09Z"/></svg>