<svg id="Layer_1" data-name="Layer 1" xmlns="http://www.w3.org/2000/svg" viewBox="0 0 400 70.67"><defs><style>.cls-1{fill:#fddb00;}.cls-2{fill:#fdb714;}.cls-3{fill:#f6851f;}.cls-4{fill:#231f20;}</style></defs><path class="cls-1" d="M375.15,10.78H24.85A14.08,14.08,0,0,0,10.78,24.85a35.08,35.08,0,0,0,35,35H354.18a35.08,35.08,0,0,0,35-35A14.08,14.08,0,0,0,375.15,10.78Z"/><circle class="cls-2" cx="46.9" cy="26.27" r="5.28"/><circle class="cls-2" cx="41.63" cy="36.78" r="4.5"/><circle class="cls-2" cx="321.44" cy="35.95" r="8.91"/><circle class="cls-2" cx="80.69" cy="48.98" r="6.64"/><path class="cls-3" d="M349.21,24.85h0a40.4,40.4,0,0,1-20.27,35h25.24a35.08,35.08,0,0,0,35-35,14.08,14.08,0,0,0-14.07-14.07h-32A19.41,19.41,0,0,1,349.21,24.85Z"/><path class="cls-4" d="M354.18,70.67H45.82A45.87,45.87,0,0,1,0,24.85,24.88,24.88,0,0,1,24.85,0h350.3A24.88,24.88,0,0,1,400,24.85,45.87,45.87,0,0,1,354.18,70.67ZM24.85,10.78A14.08,14.08,0,0,0,10.78,24.85a35.08,35.08,0,0,0,35,35H354.18a35.08,35.08,0,0,0,35-35,14.08,14.08,0,0,0-14.07-14.07Z"/></svg>