<svg id="Layer_1" data-name="Layer 1" xmlns="http://www.w3.org/2000/svg" viewBox="0 0 300 53.01"><defs><style>.cls-1{fill:#fddb00;}.cls-2{fill:#fdb714;}.cls-3{fill:#f6851f;}.cls-4{fill:#641213;}</style></defs><path class="cls-1" d="M281.36,8.09H18.64A10.56,10.56,0,0,0,8.09,18.64,26.31,26.31,0,0,0,34.37,44.92H265.63a26.31,26.31,0,0,0,26.28-26.28A10.56,10.56,0,0,0,281.36,8.09Z"/><circle class="cls-2" cx="35.18" cy="19.7" r="3.96"/><circle class="cls-2" cx="31.22" cy="27.58" r="3.38"/><circle class="cls-2" cx="241.08" cy="26.96" r="6.68"/><circle class="cls-2" cx="60.52" cy="36.73" r="4.98"/><path class="cls-3" d="M261.91,18.64h0A30.3,30.3,0,0,1,246.7,44.92h18.93a26.31,26.31,0,0,0,26.28-26.28A10.56,10.56,0,0,0,281.36,8.09h-24A14.53,14.53,0,0,1,261.91,18.64Z"/><path class="cls-4" d="M265.63,53H34.37A34.41,34.41,0,0,1,0,18.64,18.66,18.66,0,0,1,18.64,0H281.36A18.66,18.66,0,0,1,300,18.64,34.41,34.41,0,0,1,265.63,53ZM18.64,8.09A10.56,10.56,0,0,0,8.09,18.64,26.31,26.31,0,0,0,34.37,44.92H265.63a26.31,26.31,0,0,0,26.28-26.28A10.56,10.56,0,0,0,281.36,8.09Z"/></svg>