<svg id="Layer_1" data-name="Layer 1" xmlns="http://www.w3.org/2000/svg" viewBox="0 0 400 146.43"><defs><style>.cls-1{fill:#fddb00;}.cls-2{fill:#fdb714;}.cls-3{fill:#f6851f;}.cls-4{fill:#231f20;}</style></defs><path class="cls-1" d="M383.12,96A240.61,240.61,0,0,0,16.88,96l-.35.41a23.82,23.82,0,0,0,18.14,39.28H365.33a23.82,23.82,0,0,0,18.14-39.28Z"/><circle class="cls-2" cx="129.32" cy="40.82" r="5.28"/><circle class="cls-2" cx="155.37" cy="36.32" r="4.5"/><circle class="cls-2" cx="76.06" cy="95.71" r="4.5"/><circle class="cls-2" cx="263.56" cy="90.68" r="8.91"/><circle class="cls-2" cx="88.77" cy="109.17" r="6.64"/><circle class="cls-2" cx="200" cy="110.77" r="6.64"/><path class="cls-3" d="M365.33,135.65a23.82,23.82,0,0,0,18.14-39.28l-.35-.41a240.5,240.5,0,0,0-219.4-81.77A244.54,244.54,0,0,1,330.38,99.72l.35.41a29,29,0,0,1,1.8,35.52Z"/><path class="cls-4" d="M365.33,146.43H34.67A34.6,34.6,0,0,1,8.33,89.37L8.68,89A251,251,0,0,1,200,.65h0A251,251,0,0,1,391.33,89l.34.4a34.6,34.6,0,0,1-26.34,57.06ZM200,11.43A240.26,240.26,0,0,0,16.88,96l-.35.41a23.82,23.82,0,0,0,18.14,39.28H365.33a23.82,23.82,0,0,0,18.14-39.28l-.35-.41A240.26,240.26,0,0,0,200,11.43Z"/></svg>