<svg xmlns="http://www.w3.org/2000/svg" viewBox="0 0 300 29.27"><defs><style>.cls-1{fill:#8dc63f;}.cls-2{fill:#66bb6a;}.cls-3{fill:#641213;}</style></defs><g id="lettus"><polygon class="cls-1" points="217.41 21.95 249.03 21.95 234.4 7.32 232.04 7.32 217.41 21.95"/><path class="cls-1" d="M271,7.32,256.4,22h29a7.48,7.48,0,0,0,2-.27L273,7.32Z"/><polygon class="cls-1" points="174.34 21.95 209.8 21.95 195.17 7.32 188.97 7.32 174.34 21.95"/><path class="cls-1" d="M32.74,22,18.11,7.32H14.63a7.32,7.32,0,0,0,0,14.63Z"/><polygon class="cls-1" points="40.87 21.95 75.11 21.95 60.48 7.32 55.51 7.32 40.87 21.95"/><polygon class="cls-1" points="131.24 21.95 166.4 21.95 151.77 7.32 145.88 7.32 131.24 21.95"/><polygon class="cls-1" points="84.05 21.95 120.98 21.95 106.34 7.32 98.68 7.32 84.05 21.95"/><polygon class="cls-2" points="151.77 7.32 166.4 21.95 174.34 21.95 188.97 7.32 151.77 7.32"/><polygon class="cls-2" points="195.17 7.32 209.8 21.95 217.41 21.95 232.04 7.32 195.17 7.32"/><path class="cls-2" d="M273,7.32l14.36,14.36a7.31,7.31,0,0,0-2-14.36Z"/><polygon class="cls-2" points="106.34 7.32 120.98 21.95 131.24 21.95 145.88 7.32 106.34 7.32"/><polygon class="cls-2" points="60.48 7.32 75.11 21.95 84.05 21.95 98.68 7.32 60.48 7.32"/><polygon class="cls-2" points="234.4 7.32 249.03 21.95 256.4 21.95 271.03 7.32 234.4 7.32"/><polygon class="cls-2" points="40.87 21.95 55.51 7.32 18.11 7.32 32.74 21.95 40.87 21.95"/><path class="cls-3" d="M285.37,29.27H14.63A14.64,14.64,0,0,1,14.63,0H285.37a14.64,14.64,0,0,1,0,29.27ZM14.63,7.32a7.32,7.32,0,0,0,0,14.63H285.37a7.32,7.32,0,0,0,0-14.63Z"/></g></svg>