<svg xmlns="http://www.w3.org/2000/svg" viewBox="0 0 297.17 16.98"><defs><style>.cls-1{fill:#c0ca33;}.cls-2{fill:#641213;}</style></defs><g id="lettus"><path class="cls-1" d="M202.52,6h86.25a2.41,2.41,0,0,1,2.41,2.41v.17a2.4,2.4,0,0,1-2.4,2.4H202.52a2.41,2.41,0,0,1-2.41-2.41V8.41A2.41,2.41,0,0,1,202.52,6Z"/><path class="cls-1" d="M105.46,6h86.25a2.41,2.41,0,0,1,2.41,2.41v.17a2.4,2.4,0,0,1-2.4,2.4H105.46a2.41,2.41,0,0,1-2.41-2.41V8.4A2.4,2.4,0,0,1,105.46,6Z"/><path class="cls-1" d="M8.41,6H94.65a2.4,2.4,0,0,1,2.4,2.4v.17A2.41,2.41,0,0,1,94.65,11H8.41A2.41,2.41,0,0,1,6,8.57V8.41A2.41,2.41,0,0,1,8.41,6Z"/><path class="cls-2" d="M288.76,0H202.52a8.38,8.38,0,0,0-5.41,2,8.37,8.37,0,0,0-5.4-2H105.46a8.35,8.35,0,0,0-5.4,2,8.4,8.4,0,0,0-5.41-2H8.4A8.41,8.41,0,0,0,0,8.41v.16A8.41,8.41,0,0,0,8.4,17H94.65a8.4,8.4,0,0,0,5.41-2,8.35,8.35,0,0,0,5.4,2h86.25a8.37,8.37,0,0,0,5.4-2,8.38,8.38,0,0,0,5.41,2h86.24a8.42,8.42,0,0,0,8.41-8.41V8.41A8.42,8.42,0,0,0,288.76,0ZM94.65,11H8.4A2.41,2.41,0,0,1,6,8.57V8.41A2.41,2.41,0,0,1,8.4,6H94.65a2.41,2.41,0,0,1,2.41,2.41v.16A2.41,2.41,0,0,1,94.65,11Zm97.06,0H105.46a2.4,2.4,0,0,1-2.4-2.41V8.41A2.4,2.4,0,0,1,105.46,6h86.25a2.41,2.41,0,0,1,2.4,2.41v.16A2.41,2.41,0,0,1,191.71,11Zm99.46-2.41A2.41,2.41,0,0,1,288.76,11H202.52a2.41,2.41,0,0,1-2.41-2.41V8.41A2.41,2.41,0,0,1,202.52,6h86.24a2.41,2.41,0,0,1,2.41,2.41Z"/></g></svg>