<svg id="Layer_1" data-name="Layer 1" xmlns="http://www.w3.org/2000/svg" viewBox="0 0 300 53.01"><defs><style>.cls-1{fill:#9a734a;}.cls-2{fill:#7d5736;}.cls-3{fill:#7b5738;}.cls-4{fill:#8f6843;}.cls-5{fill:#7b5635;}.cls-6{fill:#641213;}</style></defs><path class="cls-1" d="M281.36,8.09H18.64A10.56,10.56,0,0,0,8.09,18.64,26.31,26.31,0,0,0,34.37,44.92H265.63a26.31,26.31,0,0,0,26.28-26.28A10.56,10.56,0,0,0,281.36,8.09Z"/><circle class="cls-2" cx="53.18" cy="17.1" r="3.96"/><circle class="cls-3" cx="33.83" cy="25.92" r="3.38"/><circle class="cls-4" cx="88.89" cy="27.74" r="6.68"/><circle class="cls-3" cx="196.49" cy="19.35" r="4.98"/><path class="cls-5" d="M270.08,18.64h0a30.31,30.31,0,0,1-15.2,26.28h10.75a26.31,26.31,0,0,0,26.28-26.28A10.56,10.56,0,0,0,281.36,8.09H265.55A14.5,14.5,0,0,1,270.08,18.64Z"/><path class="cls-6" d="M265.63,53H34.37A34.41,34.41,0,0,1,0,18.64,18.66,18.66,0,0,1,18.64,0H281.36A18.66,18.66,0,0,1,300,18.64,34.41,34.41,0,0,1,265.63,53ZM18.64,8.09A10.56,10.56,0,0,0,8.09,18.64,26.31,26.31,0,0,0,34.37,44.92H265.63a26.31,26.31,0,0,0,26.28-26.28A10.56,10.56,0,0,0,281.36,8.09Z"/></svg>