<svg xmlns="http://www.w3.org/2000/svg" viewBox="0 0 295.8 16.98"><defs><style>.cls-1{fill:#ef5451;}.cls-2{fill:#641213;}</style></defs><g id="lettus"><rect class="cls-1" x="147.13" y="6" width="142.67" height="4.98" rx="2.41"/><rect class="cls-1" x="6" y="6" width="135.13" height="4.98" rx="2.41"/><path class="cls-2" d="M287.39,0H149.53a8.37,8.37,0,0,0-5.4,2,8.38,8.38,0,0,0-5.41-2H8.4A8.41,8.41,0,0,0,0,8.41v.16A8.41,8.41,0,0,0,8.4,17H138.72a8.38,8.38,0,0,0,5.41-2,8.37,8.37,0,0,0,5.4,2H287.39a8.42,8.42,0,0,0,8.41-8.41V8.41A8.42,8.42,0,0,0,287.39,0ZM138.72,11H8.4A2.41,2.41,0,0,1,6,8.57V8.41A2.41,2.41,0,0,1,8.4,6H138.72a2.41,2.41,0,0,1,2.41,2.41v.16A2.41,2.41,0,0,1,138.72,11ZM289.8,8.57A2.41,2.41,0,0,1,287.39,11H149.53a2.41,2.41,0,0,1-2.4-2.41V8.41A2.41,2.41,0,0,1,149.53,6H287.39a2.41,2.41,0,0,1,2.41,2.41Z"/></g></svg>