<svg xmlns="http://www.w3.org/2000/svg" width="41.651" height="32.917" viewBox="0 0 41.651 32.917">
  <g id="cart-icon" transform="translate(-369.159 -888.269)">
    <path id="Path_100" data-name="Path 100" d="M410.672,893.707a.646.646,0,0,0-.505-.244h-32.8l-1.51-4.745a.644.644,0,0,0-.614-.449H369.8a.644.644,0,0,0,0,1.289h4.97l7.625,23.964a.644.644,0,0,0,.614.449h22.835a.644.644,0,1,0,0-1.288H383.484l-.994-3.124h24.167a.644.644,0,0,0,.627-.5l3.509-14.807A.644.644,0,0,0,410.672,893.707Zm-4.524,14.563H382.08l-4.3-13.519h31.573Z" fill="#641111"/>
    <path id="Path_101" data-name="Path 101" d="M403.23,949.658a3.275,3.275,0,1,0,3.275,3.275A3.279,3.279,0,0,0,403.23,949.658Zm0,5.262a1.987,1.987,0,1,1,1.987-1.987A1.989,1.989,0,0,1,403.23,954.92Z" transform="translate(-17.569 -35.023)" fill="#641111"/>
    <path id="Path_102" data-name="Path 102" d="M441.883,949.658a3.275,3.275,0,1,0,3.275,3.275A3.279,3.279,0,0,0,441.883,949.658Zm0,5.262a1.987,1.987,0,1,1,1.987-1.987A1.989,1.989,0,0,1,441.883,954.92Z" transform="translate(-39.621 -35.023)" fill="#641111"/>
  </g>
</svg>
