<svg xmlns="http://www.w3.org/2000/svg" width="37.981" height="30.315" viewBox="0 0 37.981 30.315">
  <g id="logo-icon" transform="translate(-57.875 -383.442)">
    <path id="Path_81" data-name="Path 81" d="M60.994,395.081q8.535,0,17.07,0h11.4c1.979,0,3.958.007,5.937,0a1.179,1.179,0,0,0,1.282-1.369,2.806,2.806,0,0,0-.2-.843,13.262,13.262,0,0,0-7.58-7.513,27.51,27.51,0,0,0-11.2-1.907,27.513,27.513,0,0,0-9.838,1.636,13.434,13.434,0,0,0-8.3,7.926C59.092,394.284,59.647,395.08,60.994,395.081Z" transform="translate(-1.209)" fill="#a58c66"/>
    <path id="Path_82" data-name="Path 82" d="M94.051,492.59q-8.568,0-17.137,0H59.777a4.711,4.711,0,0,0-.673.02,1.358,1.358,0,0,0-1.227,1.5,6.212,6.212,0,0,0,4.722,5.86,8.228,8.228,0,0,0,2,.215q12.279.021,24.558.007a6.258,6.258,0,0,0,6.645-5.5C96.042,493.29,95.465,492.59,94.051,492.59Z" transform="translate(0 -86.443)" fill="#a58c66"/>
    <path id="Path_83" data-name="Path 83" d="M59.717,469.45H87.645c2.226,0,4.452.007,6.679,0a1.323,1.323,0,0,0,1.5-1.486c.007-.427,0-.855,0-1.282-.011-1.1-.466-1.56-1.557-1.561-2.136,0-4.277.085-6.407-.03a3.8,3.8,0,0,0-3.595,1.4,8.855,8.855,0,0,1-.741.684,2.681,2.681,0,0,1-3.252.627c-2.069-.859-4.159-1.67-6.244-2.491a2.2,2.2,0,0,0-.774-.184q-7.016-.016-14.032,0a1.254,1.254,0,0,0-1.31,1.255c-.027.426-.009.854-.008,1.281C57.909,469.063,58.3,469.449,59.717,469.45Z" transform="translate(-0.021 -64.653)" fill="#a58c66"/>
    <path id="Path_84" data-name="Path 84" d="M58.791,448.433a2.57,2.57,0,0,0,.856.115q8.6.009,17.2,0H94.117a4.293,4.293,0,0,0,.606-.013,1.326,1.326,0,0,0,1.149-1.225,1.245,1.245,0,0,0-.987-1.339,3.931,3.931,0,0,0-.934-.085q-17.033-.006-34.065,0a3.987,3.987,0,0,0-1,.1,1.289,1.289,0,0,0-.1,2.439Z" transform="translate(-0.071 -49.457)" fill="#a58c66"/>
  </g>
</svg>
