<svg xmlns="http://www.w3.org/2000/svg" width="58.072" height="45.258" viewBox="0 0 58.072 45.258">
  <g id="Bacon" transform="translate(-391.717 -606.336)">
    <path id="Path_37" data-name="Path 37" d="M457.453,625.734a.873.873,0,0,0,.174-.018,11.28,11.28,0,0,0,5.907-3.288.852.852,0,0,0-1.236-1.174,9.583,9.583,0,0,1-5.019,2.793.852.852,0,0,0,.173,1.687Z" transform="translate(-28.022 -6.328)" fill="#641111"/>
    <path id="Path_38" data-name="Path 38" d="M450.1,629.067a.89.89,0,0,0,.139-.011l1.626-.268a.852.852,0,1,0-.277-1.681l-1.626.267a.852.852,0,0,0,.137,1.693Z" transform="translate(-24.848 -8.966)" fill="#641111"/>
    <path id="Path_39" data-name="Path 39" d="M431.023,677.857a9.7,9.7,0,0,1-2.64.846l-1.4.237a.852.852,0,0,0,.141,1.692.821.821,0,0,0,.144-.012l1.4-.237a11.383,11.383,0,0,0,3.1-.995.852.852,0,0,0-.748-1.531Z" transform="translate(-14.925 -30.852)" fill="#641111"/>
    <path id="Path_40" data-name="Path 40" d="M438.746,674.113a9.863,9.863,0,0,1-.725.695.852.852,0,1,0,1.114,1.29,11.367,11.367,0,0,0,.853-.818.852.852,0,1,0-1.241-1.167Z" transform="translate(-19.87 -29.156)" fill="#641111"/>
    <path id="Path_41" data-name="Path 41" d="M449.673,622.036l-8.91-15.277a.839.839,0,0,0-.739-.423.85.85,0,0,0-.736.427l-3.6,6.265a.852.852,0,0,0,1.478.85l2.867-4.989,1.567,2.686-3.384,5.888a9.692,9.692,0,0,1-6.846,4.768l-6.969,1.144a11.309,11.309,0,0,0-7.408,4.608l-3.664,5.115a9.616,9.616,0,0,1-6.252,3.911l-11.487,1.943-1.663-2.853,10.907-1.844a11.307,11.307,0,0,0,7.353-4.6l3.664-5.115a9.615,9.615,0,0,1,6.3-3.919l1.323-.217a.852.852,0,0,0-.276-1.682l-1.323.217a11.308,11.308,0,0,0-7.409,4.608l-3.664,5.115a9.62,9.62,0,0,1-6.252,3.911l-12.122,2.05a.853.853,0,0,0-.594,1.27l2.43,4.167a.848.848,0,0,0,.287.491l3.573,6.128a.744.744,0,0,0,.044.074l2.575,4.416a.853.853,0,0,0,.878.411l8.094-1.368a.852.852,0,0,0-.284-1.681l-7.513,1.27-1.678-2.878,10.9-1.844a11.311,11.311,0,0,0,7.354-4.6l3.664-5.115a9.617,9.617,0,0,1,6.3-3.919l6.969-1.144a11.388,11.388,0,0,0,8.046-5.6l2.872-5,1.609,2.759-3.355,5.837a9.689,9.689,0,0,1-6.845,4.768l-6.968,1.144a11.3,11.3,0,0,0-7.409,4.609l-3.4,4.753a.852.852,0,1,0,1.385.992l3.405-4.753a9.618,9.618,0,0,1,6.3-3.919l6.969-1.144a11.388,11.388,0,0,0,8.046-5.6l3.6-6.265A.851.851,0,0,0,449.673,622.036Zm-7.68,1.82a9.69,9.69,0,0,1-6.845,4.768l-6.969,1.144a11.309,11.309,0,0,0-7.408,4.608l-3.664,5.115a9.621,9.621,0,0,1-6.252,3.911l-11.532,1.95-2.816-4.828,10.853-1.835a11.31,11.31,0,0,0,7.354-4.6l3.664-5.115a9.619,9.619,0,0,1,6.3-3.919l6.969-1.144a11.387,11.387,0,0,0,8.046-5.6l2.9-5.04,2.764,4.739Z" transform="translate(0 0)" fill="#641111"/>
  </g>
</svg>
