<svg xmlns="http://www.w3.org/2000/svg" width="48.599" height="37.447" viewBox="0 0 48.599 37.447">
  <g id="Cheese" transform="translate(-127.368 -619.767)">
    <path id="Path_26" data-name="Path 26" d="M128.274,656.839a.905.905,0,0,0,.906-.9v-6.246a.906.906,0,0,0-1.811,0v6.246A.9.9,0,0,0,128.274,656.839Z" transform="translate(0 -11.499)" fill="#641111"/>
    <path id="Path_27" data-name="Path 27" d="M128.274,666.478a.906.906,0,0,0,.906-.906v-1.912a.906.906,0,0,0-1.811,0v1.912A.905.905,0,0,0,128.274,666.478Z" transform="translate(0 -17.037)" fill="#641111"/>
    <path id="Path_28" data-name="Path 28" d="M175.962,630.592a.827.827,0,0,0-.01-.094.787.787,0,0,0-.018-.085c-.007-.028-.016-.055-.025-.083s-.022-.056-.035-.083-.026-.05-.04-.074a.812.812,0,0,0-.051-.077c-.016-.022-.034-.042-.052-.063a.979.979,0,0,0-.071-.07c-.011-.01-.02-.022-.031-.031l-10.767-8.647a6.88,6.88,0,0,0-6.4-1.194L128,629.776c-.013,0-.024.011-.036.016a.8.8,0,0,0-.088.038.819.819,0,0,0-.075.04c-.025.016-.048.032-.071.049s-.048.037-.069.057-.039.039-.058.06a.873.873,0,0,0-.057.069c-.017.023-.032.048-.047.072s-.028.049-.041.076-.022.053-.032.08a.837.837,0,0,0-.027.086c-.007.026-.011.053-.015.08a.784.784,0,0,0-.01.1c0,.013,0,.025,0,.037v4.8a.906.906,0,0,0,1.811,0v-3.9h31.577a.906.906,0,1,0,0-1.811H134.111l24.9-7.915a5.069,5.069,0,0,1,4.721.881l8.76,7.034h-7.843a.906.906,0,1,0,0,1.811h9.512v11.331a5.456,5.456,0,0,0-.043,10.755,2.2,2.2,0,0,1-2.154,1.772H164.73a7.547,7.547,0,0,0-15.023,0H131.376a2.2,2.2,0,0,1-2.2-2.2v-2.18a.906.906,0,0,0-1.811,0v2.18a4.012,4.012,0,0,0,4.008,4.008h40.583a4.013,4.013,0,0,0,4.008-4.008v-4.949a.906.906,0,1,0-1.811,0v3.533a3.646,3.646,0,0,1,0-7.066v1.051a.906.906,0,0,0,1.811,0V630.639C175.967,630.623,175.963,630.608,175.962,630.592ZM157.218,650.4A5.743,5.743,0,0,1,162.9,655.4H151.533A5.743,5.743,0,0,1,157.218,650.4Z" fill="#641111"/>
    <path id="Path_29" data-name="Path 29" d="M161.966,648.089a.9.9,0,0,0-1.209.422,5.414,5.414,0,0,0-.54,2.37,5.459,5.459,0,1,0,2.734-4.733.906.906,0,1,0,.906,1.568,3.646,3.646,0,1,1-1.468,1.581A.9.9,0,0,0,161.966,648.089Z" transform="translate(-13.019 -10.166)" fill="#641111"/>
    <path id="Path_30" data-name="Path 30" d="M147.881,664.858a4.343,4.343,0,1,0-4.343,4.343A4.348,4.348,0,0,0,147.881,664.858Zm-6.874,0a2.532,2.532,0,1,1,2.531,2.532A2.535,2.535,0,0,1,141.007,664.858Z" transform="translate(-4.688 -16.149)" fill="#641111"/>
  </g>
</svg>
