<svg xmlns="http://www.w3.org/2000/svg" width="43.752" height="44.032" viewBox="0 0 43.752 44.032">
  <g id="Egg" transform="translate(-1032.649 -600.103)">
    <path id="Path_60" data-name="Path 60" d="M1078.776,620.312a.825.825,0,0,0,.427-1.086q-.265-.607-.53-1.256a.825.825,0,0,0-1.527.625q.273.667.544,1.29a.824.824,0,0,0,1.086.427Z" transform="translate(-19.997 -7.81)" fill="#641111"/>
    <path id="Path_61" data-name="Path 61" d="M1080.628,626.119a17.581,17.581,0,0,0,5.6,6.5.825.825,0,1,0,.938-1.357,16.015,16.015,0,0,1-5.088-5.928.825.825,0,1,0-1.452.783Z" transform="translate(-21.547 -11.16)" fill="#641111"/>
    <path id="Path_62" data-name="Path 62" d="M1099.841,644.045c-.172-1.208-.956-3.267-4.254-3.573a31.7,31.7,0,0,1-4.307-1.748.825.825,0,1,0-.745,1.472,33.467,33.467,0,0,0,4.625,1.873.811.811,0,0,0,.193.039c1.733.139,2.666.849,2.854,2.17.564,3.959-5.362,11.507-12.828,14.344a.825.825,0,0,0,.293,1.6.834.834,0,0,0,.293-.053C1094.464,656.935,1100.506,648.706,1099.841,644.045Z" transform="translate(-23.49 -17.34)" fill="#641111"/>
    <path id="Path_63" data-name="Path 63" d="M1080.621,676.249q-.313.076-.629.141a.825.825,0,0,0,.164,1.633.816.816,0,0,0,.166-.016q.346-.071.688-.154a.825.825,0,1,0-.39-1.6Z" transform="translate(-21.008 -34.255)" fill="#641111"/>
    <path id="Path_64" data-name="Path 64" d="M1056.56,642.458a15.8,15.8,0,0,1-3.613-.2c-10.422-1.808-17.145-8.521-18.447-18.419-1.617-12.294,6.883-20.275,13.135-21.8,3.6-.877,6.352.268,7.363,3.061.456,1.261.886,2.433,1.3,3.527a.825.825,0,0,0,1.542-.589c-.414-1.085-.84-2.248-1.293-3.5-1.306-3.611-4.87-5.183-9.305-4.1-6.833,1.664-16.129,10.32-14.381,23.616,1.381,10.5,8.783,17.918,19.8,19.829a17.225,17.225,0,0,0,2.95.252q.521,0,1.043-.031a.825.825,0,1,0-.1-1.647Z" transform="translate(0 0)" fill="#641111"/>
    <path id="Path_65" data-name="Path 65" d="M1055.644,639.6a8,8,0,1,0,8,8A8.009,8.009,0,0,0,1055.644,639.6Zm0,14.35a6.35,6.35,0,1,1,6.35-6.35A6.358,6.358,0,0,1,1055.644,653.955Z" transform="translate(-6.748 -17.776)" fill="#641111"/>
    <path id="Path_66" data-name="Path 66" d="M1059.135,659.239c-.929,0-1.6-.227-2.683-1.467a.825.825,0,0,0-1.242,1.085,4.765,4.765,0,0,0,3.925,2.032.825.825,0,0,0,0-1.65Z" transform="translate(-10.061 -25.825)" fill="#641111"/>
  </g>
</svg>
