<svg xmlns="http://www.w3.org/2000/svg" width="48.166" height="46.594" viewBox="0 0 48.166 46.594">
  <g id="lettuce" transform="translate(-259.917 -606.341)">
    <path id="Path_31" data-name="Path 31" d="M278.985,615.417a.8.8,0,0,0,.383-.1,7.876,7.876,0,0,0,2.836-2.612,6.372,6.372,0,0,1,.664-.848.806.806,0,0,0-1.179-1.1,7.99,7.99,0,0,0-.834,1.065A6.263,6.263,0,0,1,278.6,613.9a.806.806,0,0,0,.384,1.515Z" transform="translate(-8.451 -1.927)" fill="#641111"/>
    <path id="Path_32" data-name="Path 32" d="M270.361,621.481a.8.8,0,0,0,.567-.234,6.212,6.212,0,0,1,1.885-1.281.806.806,0,1,0-.646-1.476,7.8,7.8,0,0,0-2.373,1.613.806.806,0,0,0,.567,1.378Z" transform="translate(-4.46 -5.591)" fill="#641111"/>
    <path id="Path_33" data-name="Path 33" d="M300.8,653.17a6.235,6.235,0,0,1-2.028.967,7.847,7.847,0,0,0-4.525,3.287,6.28,6.28,0,0,1-7.45,2.421,7.842,7.842,0,0,0-1.99-.47V649.5a10.984,10.984,0,0,0,10.171-10.937.806.806,0,1,0-1.612,0,9.374,9.374,0,0,1-8.56,9.326V635.36a6.877,6.877,0,0,0,6.063-6.818.806.806,0,0,0-1.612,0,5.261,5.261,0,0,1-4.452,5.189V629.2a.806.806,0,0,0-1.612,0v11.542a5.261,5.261,0,0,1-4.583-5.209.806.806,0,1,0-1.612,0,6.878,6.878,0,0,0,6.195,6.835v10.608a9.374,9.374,0,0,1-8.56-9.325.806.806,0,1,0-1.612,0,10.984,10.984,0,0,0,10.172,10.937v4.788a7.841,7.841,0,0,0-1.991.47,6.28,6.28,0,0,1-7.45-2.421,7.847,7.847,0,0,0-4.524-3.287,6.28,6.28,0,0,1-4.6-6.337,7.846,7.846,0,0,0-1.728-5.319,6.278,6.278,0,0,1,0-7.833,7.846,7.846,0,0,0,1.728-5.319,6.2,6.2,0,0,1,.427-2.6.806.806,0,0,0-1.5-.592,7.8,7.8,0,0,0-.537,3.273,6.235,6.235,0,0,1-1.373,4.228,7.9,7.9,0,0,0,0,9.855,6.235,6.235,0,0,1,1.373,4.228,7.9,7.9,0,0,0,5.793,7.973,6.234,6.234,0,0,1,3.6,2.612,7.9,7.9,0,0,0,6.607,3.553,7.752,7.752,0,0,0,2.766-.508,6.241,6.241,0,0,1,2.219-.409H284a6.243,6.243,0,0,1,2.219.409,7.9,7.9,0,0,0,9.373-3.045,6.234,6.234,0,0,1,3.6-2.612,7.829,7.829,0,0,0,2.552-1.217.806.806,0,1,0-.945-1.306Z" transform="translate(0 -8.924)" fill="#641111"/>
    <path id="Path_34" data-name="Path 34" d="M339.73,672.4a.805.805,0,0,0-1.095.316,6.259,6.259,0,0,1-.678.992.806.806,0,0,0,1.238,1.033,7.948,7.948,0,0,0,.852-1.245A.806.806,0,0,0,339.73,672.4Z" transform="translate(-36.026 -30.524)" fill="#641111"/>
    <path id="Path_35" data-name="Path 35" d="M341.877,661.278a.805.805,0,0,0-.988.568,7.843,7.843,0,0,0-.262,2.439,6.247,6.247,0,0,1-.182,1.839.806.806,0,0,0,1.563.394,7.832,7.832,0,0,0,.228-2.314,6.243,6.243,0,0,1,.208-1.938A.806.806,0,0,0,341.877,661.278Z" transform="translate(-37.253 -25.409)" fill="#641111"/>
    <path id="Path_36" data-name="Path 36" d="M320.242,624.713a6.237,6.237,0,0,1-1.374-4.228,7.9,7.9,0,0,0-5.793-7.973,6.236,6.236,0,0,1-3.6-2.613,7.9,7.9,0,0,0-9.373-3.045,6.232,6.232,0,0,1-4.445,0,7.881,7.881,0,0,0-5.179-.145.806.806,0,1,0,.489,1.536,6.267,6.267,0,0,1,4.116.114,7.846,7.846,0,0,0,5.592,0,6.282,6.282,0,0,1,7.45,2.421,7.844,7.844,0,0,0,4.524,3.287,6.279,6.279,0,0,1,4.6,6.337,7.845,7.845,0,0,0,1.728,5.319,6.278,6.278,0,0,1,0,7.833,8.024,8.024,0,0,0-.528.739.806.806,0,1,0,1.364.859,6.259,6.259,0,0,1,.42-.587A7.9,7.9,0,0,0,320.242,624.713Z" transform="translate(-13.884)" fill="#641111"/>
  </g>
</svg>
