<svg xmlns="http://www.w3.org/2000/svg" width="43.208" height="43.255" viewBox="0 0 43.208 43.255">
  <g id="onion" transform="translate(-792.726 -606.973)">
    <path id="Path_51" data-name="Path 51" d="M794.491,649.748a14.754,14.754,0,0,1,.23-4.473.846.846,0,0,0-1.656-.341,16.434,16.434,0,0,0-.256,4.985.845.845,0,0,0,.84.76.761.761,0,0,0,.086,0A.845.845,0,0,0,794.491,649.748Z" transform="translate(0 -16.275)" fill="#641111"/>
    <path id="Path_52" data-name="Path 52" d="M796.491,661.019q-.188-.42-.352-.852a.845.845,0,1,0-1.582.6c.121.319.251.636.391.946a.845.845,0,0,0,1.542-.692Z" transform="translate(-0.776 -22.98)" fill="#641111"/>
    <path id="Path_53" data-name="Path 53" d="M836.641,629.284a17.45,17.45,0,0,0-7.688-12.578,23.131,23.131,0,0,0-14.577-3.968l-.9-5.068a.845.845,0,0,0-1.146-.637l-3.707,1.483a.846.846,0,0,0-.463,1.119l1.629,3.794c-7.081,1.741-12.856,6.472-15.191,12.689a.845.845,0,0,0,1.583.594,18.717,18.717,0,0,1,9.563-10.039,16.089,16.089,0,0,0-2.06,2.727,21.977,21.977,0,0,0-2.753,13.5,23.755,23.755,0,0,0,1.912,7.29.844.844,0,0,0,.773.5.834.834,0,0,0,.343-.073.845.845,0,0,0,.428-1.116,22.074,22.074,0,0,1-1.774-6.772,20.281,20.281,0,0,1,2.519-12.458,12,12,0,0,1,5.747-5.144c-1.489,3.446-1.751,10.236-1.079,16.874a55.069,55.069,0,0,0,2.634,12.654,16.4,16.4,0,0,0,1.756,3.643,11.355,11.355,0,0,1-5.393-2.686.846.846,0,0,0-1.105,1.28,15.091,15.091,0,0,0,1.215.934,18.908,18.908,0,0,1-11.143-7.53.845.845,0,1,0-1.4.94c3.755,5.611,10.7,8.99,18.156,8.99a24.681,24.681,0,0,0,2.5-.127,23.3,23.3,0,0,0,14.622-6.953A17.449,17.449,0,0,0,836.641,629.284Zm-26.589-19.519,1.939-.776.7,3.911c-.407.051-.814.1-1.215.174Zm1.426,22.068c-1.111-10.971.69-17.2,1.926-17.325h.03c.438,0,1.54.893,2.789,4.34a53.386,53.386,0,0,1,2.542,12.248c1.111,10.97-.69,17.2-1.926,17.325-.424.046-1.541-.813-2.819-4.339A53.392,53.392,0,0,1,811.477,631.833ZM830.4,641.985a20.364,20.364,0,0,1-5.926,4.3,16.031,16.031,0,0,0,2.084-2.752,21.979,21.979,0,0,0,2.754-13.5,24.467,24.467,0,0,0-.917-4.612.845.845,0,0,0-1.618.49,22.789,22.789,0,0,1,.853,4.293,20.281,20.281,0,0,1-2.519,12.458,12,12,0,0,1-5.747,5.144c1.489-3.446,1.751-10.236,1.079-16.874a55.034,55.034,0,0,0-2.634-12.654,16.343,16.343,0,0,0-1.762-3.65,12.648,12.648,0,0,1,7.666,5.135.845.845,0,0,0,1.351-1.017,16.644,16.644,0,0,0-3.75-3.666,20.361,20.361,0,0,1,6.668,3.019,15.339,15.339,0,0,1,2.42,23.893Z" transform="translate(-0.792)" fill="#641111"/>
    <path id="Path_54" data-name="Path 54" d="M813.827,672.105a.846.846,0,0,0,.665-1.367q-.308-.392-.6-.81a.845.845,0,1,0-1.391.961q.317.46.655.891A.844.844,0,0,0,813.827,672.105Z" transform="translate(-8.568 -27.32)" fill="#641111"/>
    <path id="Path_55" data-name="Path 55" d="M850.348,632a.845.845,0,1,0-1.487.8q.216.4.418.82a.845.845,0,1,0,1.524-.732Q850.585,632.433,850.348,632Z" transform="translate(-24.458 -10.728)" fill="#641111"/>
  </g>
</svg>
