<svg xmlns="http://www.w3.org/2000/svg" width="44.527" height="44.527" viewBox="0 0 44.527 44.527">
  <g id="Protein" transform="translate(-548.576 -606.613)">
    <path id="Path_42" data-name="Path 42" d="M552.173,637.707c-.094-.2-.177-.4-.264-.6l27.162-27.162c.153.067.308.128.46.2a.809.809,0,1,0,.683-1.468,22.075,22.075,0,0,0-9.375-2.064c-.421,0-.84.015-1.255.038a.8.8,0,0,0-.525.04,22.29,22.29,0,0,0-20.426,20.672v.014c-.033.5-.056.995-.056,1.5a22.068,22.068,0,0,0,2.135,9.525.809.809,0,0,0,1.463-.694Zm25.252-28.4L551.268,635.46a20.517,20.517,0,0,1-1.074-6.583c0-.385.012-.767.033-1.147l19.465-19.465c.38-.021.762-.033,1.147-.033A20.538,20.538,0,0,1,577.425,609.3Zm-10.336-.724-16.547,16.547A20.694,20.694,0,0,1,567.089,608.579Z" transform="translate(0 0)" fill="#641111"/>
    <path id="Path_43" data-name="Path 43" d="M556.306,668.131q-.2-.305-.393-.617a.809.809,0,0,0-1.381.845c.137.224.279.446.424.665a.809.809,0,0,0,1.35-.892Z" transform="translate(-2.688 -27.864)" fill="#641111"/>
    <path id="Path_44" data-name="Path 44" d="M595.092,622.589a.8.8,0,0,0-.162-.225h0a.807.807,0,0,0-.264-.175l0,0a.813.813,0,0,0-.3-.058h-.011a.794.794,0,0,0-.279.055l-.032.011c-.009,0-.018.005-.027.01a.8.8,0,0,0-.209.147c-.006.006-.015.008-.021.013L565.644,650.5a20.568,20.568,0,0,1-5.117-3.654l29.186-29.187c.438.449.864.911,1.26,1.4a.809.809,0,1,0,1.256-1.02,22.347,22.347,0,0,0-1.9-2.049c-.014-.016-.019-.037-.035-.052s-.038-.022-.055-.037a22.316,22.316,0,0,0-2.72-2.208.809.809,0,0,0-.915,1.335,20.689,20.689,0,0,1,1.936,1.519L559.418,645.67c-.165-.189-.332-.375-.491-.57a.809.809,0,0,0-1.255,1.022,22.188,22.188,0,0,0,17.148,8.211h.012c.037,0,.074,0,.112,0a22.274,22.274,0,0,0,20.148-31.747Zm-1,1.755a20.437,20.437,0,0,1,1.483,7.287L574.5,652.705a20.62,20.62,0,0,1-7.286-1.484Zm-17.222,28.281L595.5,634A20.676,20.676,0,0,1,576.872,652.624Z" transform="translate(-4.105 -3.196)" fill="#641111"/>
    <path id="Path_45" data-name="Path 45" d="M622.063,626.344q.216.34.419.689a.809.809,0,1,0,1.4-.812q-.218-.377-.452-.745a.809.809,0,1,0-1.367.868Z" transform="translate(-33.779 -8.513)" fill="#641111"/>
  </g>
</svg>
