<svg xmlns="http://www.w3.org/2000/svg" width="42.119" height="43.217" viewBox="0 0 42.119 43.217">
  <g id="tomato" transform="translate(-675.035 -610.253)">
    <path id="Path_46" data-name="Path 46" d="M677.854,626.479a.851.851,0,0,0,1.113-.455c.071-.169.146-.337.222-.5.048-.1.1-.207.147-.31h0A17.193,17.193,0,0,1,693.3,615.9l2.372,4.129-2.742,4.029a.85.85,0,0,0,.746,1.327l8.062-.408,3.859,5.872a.851.851,0,0,0,.711.383.825.825,0,0,0,.2-.023.85.85,0,0,0,.648-.728l.548-4.7,8.528-1.306a.85.85,0,0,0,.227-1.613l-9.915-4.573,2.672-5.792a.851.851,0,0,0-.416-1.129l-2.238-1.033a.851.851,0,0,0-1.129.416l-2.671,5.793-9.943-4.586a.85.85,0,0,0-1.093,1.2l.655,1.14a18.781,18.781,0,0,0-14.569,10.175h0c-.055.113-.109.227-.163.343-.084.185-.167.371-.245.557A.851.851,0,0,0,677.854,626.479Zm24.965-8.039a.851.851,0,0,0,1.128-.416l2.672-5.793.694.32-2.672,5.793a.85.85,0,0,0,.416,1.128l8.119,3.744-6.373.977a.85.85,0,0,0-.716.742l-.353,3.024-2.843-4.325a.85.85,0,0,0-.71-.383h-.043l-6.84.346,2.079-3.055a.851.851,0,0,0,.035-.9l-2.886-5.026Z" transform="translate(-0.995)" fill="#641111"/>
    <path id="Path_47" data-name="Path 47" d="M675.862,647.161h.024a.851.851,0,0,0,.85-.827c.014-.511.052-1.024.113-1.526a.85.85,0,1,0-1.687-.206c-.069.555-.111,1.122-.126,1.686A.85.85,0,0,0,675.862,647.161Z" transform="translate(0 -14.556)" fill="#641111"/>
    <path id="Path_48" data-name="Path 48" d="M714.184,661.089a.85.85,0,0,0-1.174.26c-4.783,7.5-15.2,10.01-24.238,5.843-6.7-3.09-11.263-9.2-11.909-15.945a.85.85,0,0,0-1.693.162c.7,7.345,5.643,13.984,12.889,17.328a23.223,23.223,0,0,0,9.72,2.158,19.488,19.488,0,0,0,16.664-8.631A.85.85,0,0,0,714.184,661.089Z" transform="translate(-0.057 -17.424)" fill="#641111"/>
    <path id="Path_49" data-name="Path 49" d="M745.594,661.25a.85.85,0,0,0-1.052.583,15.937,15.937,0,0,1-.845,2.273.85.85,0,1,0,1.543.713,17.71,17.71,0,0,0,.936-2.517A.851.851,0,0,0,745.594,661.25Z" transform="translate(-29.709 -22.077)" fill="#641111"/>
    <path id="Path_50" data-name="Path 50" d="M746.231,643.137a.85.85,0,1,0-1.609.55,17.048,17.048,0,0,1,.879,7.2.851.851,0,0,0,.765.928c.028,0,.055,0,.083,0a.851.851,0,0,0,.846-.769A18.752,18.752,0,0,0,746.231,643.137Z" transform="translate(-30.124 -13.996)" fill="#641111"/>
  </g>
</svg>
